<svg width="40" height="40" viewBox="0 0 40 40" fill="none" xmlns="http://www.w3.org/2000/svg">
<path d="M28.3175 12.493C26.7875 11.803 25.1475 11.293 23.4325 11.003C23.4172 11 23.4014 11.0019 23.3872 11.0084C23.3731 11.0148 23.3613 11.0255 23.3535 11.039C23.1435 11.408 22.9095 11.889 22.7455 12.269C20.9266 11.9972 19.0774 11.9972 17.2585 12.269C17.0758 11.8478 16.8698 11.4372 16.6415 11.039C16.6337 11.0253 16.622 11.0144 16.6079 11.0076C16.5938 11.0008 16.578 10.9985 16.5625 11.001C14.8485 11.291 13.2085 11.801 11.6775 12.492C11.6643 12.4975 11.6531 12.5069 11.6455 12.519C8.53348 17.094 7.68048 21.556 8.09948 25.962C8.10065 25.9727 8.104 25.9832 8.10933 25.9926C8.11465 26.0021 8.12185 26.0104 8.13048 26.017C9.94687 27.3394 11.9728 28.3468 14.1235 28.997C14.1385 29.0016 14.1545 29.0016 14.1695 28.9969C14.1845 28.9923 14.1977 28.9832 14.2075 28.9709C14.6703 28.352 15.0804 27.6954 15.4335 27.0079C15.4384 26.9986 15.4412 26.9882 15.4418 26.9776C15.4423 26.967 15.4406 26.9565 15.4367 26.9466C15.4328 26.9367 15.4269 26.9278 15.4192 26.9205C15.4116 26.9131 15.4025 26.9075 15.3925 26.9039C14.7465 26.6607 14.1206 26.3671 13.5205 26.0259C13.5097 26.0198 13.5006 26.0111 13.494 26.0005C13.4875 25.99 13.4836 25.978 13.4828 25.9656C13.482 25.9532 13.4843 25.9408 13.4895 25.9295C13.4947 25.9183 13.5026 25.9084 13.5125 25.9009C13.6385 25.8079 13.7645 25.711 13.8845 25.614C13.8953 25.6052 13.9083 25.5997 13.9221 25.5979C13.9358 25.5961 13.9498 25.5982 13.9625 25.604C17.8895 27.368 22.1425 27.368 26.0235 25.604C26.0362 25.5979 26.0503 25.5955 26.0643 25.5971C26.0782 25.5987 26.0915 25.6042 26.1025 25.6129C26.2225 25.7109 26.3475 25.8079 26.4745 25.9009C26.4845 25.9083 26.4925 25.918 26.4979 25.9292C26.5032 25.9403 26.5057 25.9527 26.5051 25.9651C26.5045 25.9774 26.5008 25.9895 26.4945 26.0001C26.4881 26.0107 26.4791 26.0196 26.4685 26.0259C25.8705 26.3699 25.2485 26.661 24.5955 26.903C24.5855 26.9066 24.5763 26.9123 24.5687 26.9198C24.561 26.9272 24.5551 26.9362 24.5512 26.9462C24.5473 26.9561 24.5456 26.9668 24.5462 26.9774C24.5467 26.9881 24.5496 26.9985 24.5545 27.0079C24.9145 27.695 25.3265 28.3489 25.7795 28.9699C25.7889 28.9827 25.802 28.9922 25.8171 28.9972C25.8321 29.0022 25.8483 29.0025 25.8635 28.9979C28.0178 28.3496 30.0471 27.3417 31.8655 26.017C31.8744 26.0107 31.8818 26.0027 31.8873 25.9934C31.8928 25.9841 31.8963 25.9737 31.8975 25.9629C32.3975 20.8689 31.0595 16.443 28.3485 12.521C28.3418 12.5082 28.3308 12.4983 28.3175 12.493ZM16.0205 23.2789C14.8385 23.2789 13.8635 22.2099 13.8635 20.8989C13.8635 19.5869 14.8195 18.5189 16.0205 18.5189C17.2305 18.5189 18.1965 19.5959 18.1775 20.8989C18.1775 22.2109 17.2215 23.2789 16.0205 23.2789ZM23.9955 23.2789C22.8125 23.2789 21.8385 22.2099 21.8385 20.8989C21.8385 19.5869 22.7935 18.5189 23.9955 18.5189C25.2055 18.5189 26.1715 19.5959 26.1525 20.8989C26.1525 22.2109 25.2065 23.2789 23.9955 23.2789Z" fill="white"/>
</svg>
